<svg id="visual" viewBox="0 0 900 600" width="900" height="600" xmlns="http://www.w3.org/2000/svg" xmlns:xlink="http://www.w3.org/1999/xlink" version="1.1"><path d="M0 193L13.7 176C27.3 159 54.7 125 82 118C109.3 111 136.7 131 163.8 151C191 171 218 191 245.2 196C272.3 201 299.7 191 327 185C354.3 179 381.7 177 409 171C436.3 165 463.7 155 491 144C518.3 133 545.7 121 573 137C600.3 153 627.7 197 654.8 218C682 239 709 237 736.2 225C763.3 213 790.7 191 818 169C845.3 147 872.7 125 886.3 114L900 103L900 0L886.3 0C872.7 0 845.3 0 818 0C790.7 0 763.3 0 736.2 0C709 0 682 0 654.8 0C627.7 0 600.3 0 573 0C545.7 0 518.3 0 491 0C463.7 0 436.3 0 409 0C381.7 0 354.3 0 327 0C299.7 0 272.3 0 245.2 0C218 0 191 0 163.8 0C136.7 0 109.3 0 82 0C54.7 0 27.3 0 13.7 0L0 0Z" fill="#e1f1d4"></path><path d="M0 271L13.7 257C27.3 243 54.7 215 82 203C109.3 191 136.7 195 163.8 208C191 221 218 243 245.2 254C272.3 265 299.7 265 327 258C354.3 251 381.7 237 409 226C436.3 215 463.7 207 491 199C518.3 191 545.7 183 573 196C600.3 209 627.7 243 654.8 263C682 283 709 289 736.2 286C763.3 283 790.7 271 818 252C845.3 233 872.7 207 886.3 194L900 181L900 101L886.3 112C872.7 123 845.3 145 818 167C790.7 189 763.3 211 736.2 223C709 235 682 237 654.8 216C627.7 195 600.3 151 573 135C545.7 119 518.3 131 491 142C463.7 153 436.3 163 409 169C381.7 175 354.3 177 327 183C299.7 189 272.3 199 245.2 194C218 189 191 169 163.8 149C136.7 129 109.3 109 82 116C54.7 123 27.3 157 13.7 174L0 191Z" fill="#b4d1a4"></path><path d="M0 463L13.7 460C27.3 457 54.7 451 82 436C109.3 421 136.7 397 163.8 398C191 399 218 425 245.2 435C272.3 445 299.7 439 327 429C354.3 419 381.7 405 409 399C436.3 393 463.7 395 491 402C518.3 409 545.7 421 573 430C600.3 439 627.7 445 654.8 437C682 429 709 407 736.2 400C763.3 393 790.7 401 818 411C845.3 421 872.7 433 886.3 439L900 445L900 179L886.3 192C872.7 205 845.3 231 818 250C790.7 269 763.3 281 736.2 284C709 287 682 281 654.8 261C627.7 241 600.3 207 573 194C545.7 181 518.3 189 491 197C463.7 205 436.3 213 409 224C381.7 235 354.3 249 327 256C299.7 263 272.3 263 245.2 252C218 241 191 219 163.8 206C136.7 193 109.3 189 82 201C54.7 213 27.3 241 13.7 255L0 269Z" fill="#85b277"></path><path d="M0 517L13.7 514C27.3 511 54.7 505 82 500C109.3 495 136.7 491 163.8 496C191 501 218 515 245.2 526C272.3 537 299.7 545 327 531C354.3 517 381.7 481 409 469C436.3 457 463.7 469 491 475C518.3 481 545.7 481 573 488C600.3 495 627.7 509 654.8 507C682 505 709 487 736.2 481C763.3 475 790.7 481 818 494C845.3 507 872.7 527 886.3 537L900 547L900 443L886.3 437C872.7 431 845.3 419 818 409C790.7 399 763.3 391 736.2 398C709 405 682 427 654.8 435C627.7 443 600.3 437 573 428C545.7 419 518.3 407 491 400C463.7 393 436.3 391 409 397C381.7 403 354.3 417 327 427C299.7 437 272.3 443 245.2 433C218 423 191 397 163.8 396C136.7 395 109.3 419 82 434C54.7 449 27.3 455 13.7 458L0 461Z" fill="#54934d"></path><path d="M0 601L13.7 601C27.3 601 54.7 601 82 601C109.3 601 136.7 601 163.8 601C191 601 218 601 245.2 601C272.3 601 299.7 601 327 601C354.3 601 381.7 601 409 601C436.3 601 463.7 601 491 601C518.3 601 545.7 601 573 601C600.3 601 627.7 601 654.8 601C682 601 709 601 736.2 601C763.3 601 790.7 601 818 601C845.3 601 872.7 601 886.3 601L900 601L900 545L886.3 535C872.7 525 845.3 505 818 492C790.7 479 763.3 473 736.2 479C709 485 682 503 654.8 505C627.7 507 600.3 493 573 486C545.7 479 518.3 479 491 473C463.7 467 436.3 455 409 467C381.7 479 354.3 515 327 529C299.7 543 272.3 535 245.2 524C218 513 191 499 163.8 494C136.7 489 109.3 493 82 498C54.7 503 27.3 509 13.7 512L0 515Z" fill="#127525"></path></svg>