<svg id="visual" viewBox="0 0 900 600" width="900" height="600" xmlns="http://www.w3.org/2000/svg" xmlns:xlink="http://www.w3.org/1999/xlink" version="1.1"><path d="M0 67L16.7 72C33.3 77 66.7 87 100 84C133.3 81 166.7 65 200 70C233.3 75 266.7 101 300 100C333.3 99 366.7 71 400 63C433.3 55 466.7 67 500 75C533.3 83 566.7 87 600 93C633.3 99 666.7 107 700 108C733.3 109 766.7 103 800 91C833.3 79 866.7 61 883.3 52L900 43L900 0L883.3 0C866.7 0 833.3 0 800 0C766.7 0 733.3 0 700 0C666.7 0 633.3 0 600 0C566.7 0 533.3 0 500 0C466.7 0 433.3 0 400 0C366.7 0 333.3 0 300 0C266.7 0 233.3 0 200 0C166.7 0 133.3 0 100 0C66.7 0 33.3 0 16.7 0L0 0Z" fill="#0e5e1e"></path><path d="M0 235L16.7 239C33.3 243 66.7 251 100 244C133.3 237 166.7 215 200 221C233.3 227 266.7 261 300 262C333.3 263 366.7 231 400 237C433.3 243 466.7 287 500 291C533.3 295 566.7 259 600 238C633.3 217 666.7 211 700 207C733.3 203 766.7 201 800 210C833.3 219 866.7 239 883.3 249L900 259L900 41L883.3 50C866.7 59 833.3 77 800 89C766.7 101 733.3 107 700 106C666.7 105 633.3 97 600 91C566.7 85 533.3 81 500 73C466.7 65 433.3 53 400 61C366.7 69 333.3 97 300 98C266.7 99 233.3 73 200 68C166.7 63 133.3 79 100 82C66.7 85 33.3 75 16.7 70L0 65Z" fill="#407a3d"></path><path d="M0 451L16.7 447C33.3 443 66.7 435 100 424C133.3 413 166.7 399 200 394C233.3 389 266.7 393 300 404C333.3 415 366.7 433 400 450C433.3 467 466.7 483 500 482C533.3 481 566.7 463 600 450C633.3 437 666.7 429 700 422C733.3 415 766.7 409 800 415C833.3 421 866.7 439 883.3 448L900 457L900 257L883.3 247C866.7 237 833.3 217 800 208C766.7 199 733.3 201 700 205C666.7 209 633.3 215 600 236C566.7 257 533.3 293 500 289C466.7 285 433.3 241 400 235C366.7 229 333.3 261 300 260C266.7 259 233.3 225 200 219C166.7 213 133.3 235 100 242C66.7 249 33.3 241 16.7 237L0 233Z" fill="#67965d"></path><path d="M0 565L16.7 561C33.3 557 66.7 549 100 547C133.3 545 166.7 549 200 548C233.3 547 266.7 541 300 541C333.3 541 366.7 547 400 552C433.3 557 466.7 561 500 562C533.3 563 566.7 561 600 554C633.3 547 666.7 535 700 532C733.3 529 766.7 535 800 541C833.3 547 866.7 553 883.3 556L900 559L900 455L883.3 446C866.7 437 833.3 419 800 413C766.7 407 733.3 413 700 420C666.7 427 633.3 435 600 448C566.7 461 533.3 479 500 480C466.7 481 433.3 465 400 448C366.7 431 333.3 413 300 402C266.7 391 233.3 387 200 392C166.7 397 133.3 411 100 422C66.7 433 33.3 441 16.7 445L0 449Z" fill="#8eb380"></path><path d="M0 601L16.7 601C33.3 601 66.7 601 100 601C133.3 601 166.7 601 200 601C233.3 601 266.7 601 300 601C333.3 601 366.7 601 400 601C433.3 601 466.7 601 500 601C533.3 601 566.7 601 600 601C633.3 601 666.7 601 700 601C733.3 601 766.7 601 800 601C833.3 601 866.7 601 883.3 601L900 601L900 557L883.3 554C866.7 551 833.3 545 800 539C766.7 533 733.3 527 700 530C666.7 533 633.3 545 600 552C566.7 559 533.3 561 500 560C466.7 559 433.3 555 400 550C366.7 545 333.3 539 300 539C266.7 539 233.3 545 200 546C166.7 547 133.3 543 100 545C66.7 547 33.3 555 16.7 559L0 563Z" fill="#b4d1a4"></path></svg>